<?xml version="1.0" encoding="UTF-8" standalone="no"?>
<!-- Created with Inkscape (http://www.inkscape.org/) -->

<svg
   xmlns:dc="http://purl.org/dc/elements/1.1/"
   xmlns:cc="http://creativecommons.org/ns#"
   xmlns:rdf="http://www.w3.org/1999/02/22-rdf-syntax-ns#"
   xmlns:svg="http://www.w3.org/2000/svg"
   xmlns="http://www.w3.org/2000/svg"
   xmlns:xlink="http://www.w3.org/1999/xlink"
   version="1.1"
   width="399.55377"
   height="381.11697"
   id="svg4721">
  <defs
     id="defs4723">
    <radialGradient
       cx="24.837126"
       cy="40.663769"
       r="21.478369"
       fx="24.837126"
       fy="40.663769"
       id="radialGradient5156"
       xlink:href="#linearGradient5150"
       gradientUnits="userSpaceOnUse"
       gradientTransform="matrix(1,0,0,0.325103,0,27.44386)" />
    <linearGradient
       id="linearGradient5150">
      <stop
         id="stop5152"
         style="stop-color:#000000;stop-opacity:1"
         offset="0" />
      <stop
         id="stop5154"
         style="stop-color:#000000;stop-opacity:0"
         offset="1" />
    </linearGradient>
    <radialGradient
       cx="23.688078"
       cy="14.210698"
       r="22.597088"
       fx="23.688078"
       fy="14.210698"
       id="radialGradient5361"
       xlink:href="#linearGradient5188"
       gradientUnits="userSpaceOnUse"
       gradientTransform="matrix(2.135667,0,0,2.110607,-26.90176,-15.66914)" />
    <linearGradient
       id="linearGradient5188">
      <stop
         id="stop5190"
         style="stop-color:#ffffff;stop-opacity:1"
         offset="0" />
      <stop
         id="stop5192"
         style="stop-color:#aeaea3;stop-opacity:1"
         offset="1" />
    </linearGradient>
    <radialGradient
       cx="20.089987"
       cy="10.853651"
       r="22.597088"
       fx="20.089987"
       fy="10.853651"
       id="radialGradient5363"
       xlink:href="#linearGradient5196"
       gradientUnits="userSpaceOnUse"
       gradientTransform="matrix(1.790269,0,0,1.769263,-15.81394,-11.94997)" />
    <linearGradient
       id="linearGradient5196">
      <stop
         id="stop5198"
         style="stop-color:#dfe2dc;stop-opacity:1"
         offset="0" />
      <stop
         id="stop5200"
         style="stop-color:#86917a;stop-opacity:1"
         offset="1" />
    </linearGradient>
    <linearGradient
       x1="22.008699"
       y1="36.509514"
       x2="23.585091"
       y2="14.412428"
       id="linearGradient5170"
       xlink:href="#linearGradient5162"
       gradientUnits="userSpaceOnUse" />
    <linearGradient
       id="linearGradient5162">
      <stop
         id="stop5164"
         style="stop-color:#babdb6;stop-opacity:1"
         offset="0" />
      <stop
         id="stop5166"
         style="stop-color:#ffffff;stop-opacity:1"
         offset="1" />
    </linearGradient>
    <linearGradient
       x1="24.365993"
       y1="20.246058"
       x2="32.600704"
       y2="28.554564"
       id="linearGradient5168"
       xlink:href="#linearGradient5162"
       gradientUnits="userSpaceOnUse" />
    <linearGradient
       id="linearGradient4756">
      <stop
         id="stop4758"
         style="stop-color:#babdb6;stop-opacity:1"
         offset="0" />
      <stop
         id="stop4760"
         style="stop-color:#ffffff;stop-opacity:1"
         offset="1" />
    </linearGradient>
    <linearGradient
       x1="25.632622"
       y1="10.611729"
       x2="38.714096"
       y2="18.389904"
       id="linearGradient5182"
       xlink:href="#linearGradient5176"
       gradientUnits="userSpaceOnUse" />
    <linearGradient
       id="linearGradient5176">
      <stop
         id="stop5178"
         style="stop-color:#000000;stop-opacity:1"
         offset="0" />
      <stop
         id="stop5180"
         style="stop-color:#000000;stop-opacity:0"
         offset="1" />
    </linearGradient>
    <linearGradient
       x1="19.450956"
       y1="14.463861"
       x2="23.71875"
       y2="48.404987"
       id="linearGradient5172"
       xlink:href="#linearGradient5166"
       gradientUnits="userSpaceOnUse" />
    <linearGradient
       id="linearGradient5166">
      <stop
         id="stop5168"
         style="stop-color:#ffffff;stop-opacity:1"
         offset="0" />
      <stop
         id="stop5170"
         style="stop-color:#ffffff;stop-opacity:0"
         offset="1" />
    </linearGradient>
    <linearGradient
       x1="19.450956"
       y1="14.463861"
       x2="23.71875"
       y2="48.404987"
       id="linearGradient4780"
       xlink:href="#linearGradient5166"
       gradientUnits="userSpaceOnUse" />
  </defs>
  <metadata
     id="metadata4726">
    <rdf:RDF>
      <cc:Work
         rdf:about="">
        <dc:format>image/svg+xml</dc:format>
        <dc:type
           rdf:resource="http://purl.org/dc/dcmitype/StillImage" />
        <dc:title></dc:title>
      </cc:Work>
    </rdf:RDF>
  </metadata>
  <g
     transform="translate(-3.3663901,-5.5712084)"
     id="layer1">
    <g
       transform="matrix(7.8629049,0,0,7.8629049,10.586424,4.5139984)"
       id="layer1-9">
      <path
         d="m 46.315495,40.663769 a 21.478369,6.9826794 0 1 1 -42.956738,0 21.478369,6.9826794 0 1 1 42.956738,0 z"
         transform="matrix(1.106996,0,0,1.106996,-3.364576,-5.411516)"
         id="path4275"
         style="opacity:0.3258427;color:#000000;fill:url(#radialGradient5156);fill-opacity:1;fill-rule:evenodd;stroke:none;stroke-width:1;marker:none;visibility:visible;display:inline;overflow:visible" />
      <path
         d="m 9.0156115,37.570175 -1.767767,2.828427 3.7123105,1.59099 2.651651,-2.12132 11.844038,0.883883 3.712311,4.949748 3.358757,-5.480078 4.242641,2.298097 5.656854,-0.707106 -1.414214,-3.005204 3.889088,-3.889088 -5.480078,-6.187184 5.303301,0.707107 2.298097,-2.12132 -3.005204,0.53033 -3.18198,-5.480078 -4.596194,-1.06066 3.71231,-1.237437 0.176777,-3.18198 -7.247845,-6.363961 -2.65165,-8.4852818 -12.020815,3.5355339 -3.005204,7.0710679 -1.06066,-2.298097 -3.005204,0.176777 0,2.828427 -3.5355341,-4.0658643 -4.7729708,5.1265243 0,7.247844 8.3085049,7.247845 -5.303301,3.005204 0.1767766,3.005203 3.0052039,2.651651 z"
         id="path4273"
         style="color:#000000;fill:url(#radialGradient5361);fill-opacity:1;fill-rule:evenodd;stroke:url(#radialGradient5363);stroke-width:1;stroke-linecap:butt;stroke-linejoin:miter;stroke-miterlimit:4;stroke-opacity:1;stroke-dasharray:none;stroke-dashoffset:0;marker:none;visibility:visible;display:inline;overflow:visible" />
      <path
         d="m 19.445437,22.720933 -0.883884,6.540737 2.12132,3.358757 -4.596194,1.414214 -2.65165,5.303301 12.020815,0.883883 2.828427,4.065864 2.298097,-6.187184 -4.419417,-2.828427 -6.717514,1.944544 2.65165,-3.535534 -1.414214,-6.187185 -1.237436,-4.77297 z"
         id="path5158"
         style="opacity:0.76966289;color:#000000;fill:url(#linearGradient5170);fill-opacity:1;fill-rule:evenodd;stroke:none;stroke-width:1;marker:none;visibility:visible;display:inline;overflow:visible" />
      <path
         d="m 20.506097,23.781593 4.419417,6.894291 7.247845,-4.949748 4.419417,2.474874 3.535534,-3.005204 3.18198,2.828427 -3.005203,-4.949747 -6.894292,-1.59099 -8.662058,-4.242641 c 0,0 -12.374368,3.712311 -11.667262,3.712311 0.707107,0 10.253049,0.176776 10.253049,0.176776 l 1.59099,-2.298097 4.242641,1.944544 -8.662058,3.005204 z"
         id="path5160"
         style="opacity:0.61797755;color:#000000;fill:url(#linearGradient5168);fill-opacity:1;fill-rule:evenodd;stroke:none;stroke-width:1;marker:none;visibility:visible;display:inline;overflow:visible" />
      <path
         d="M 29.521708,3.4522727 19.091883,6.9878066 17.67767,10.876894 23.688077,15.119535 29.344931,9.6394571 29.521708,3.4522727 z"
         id="path5172"
         style="color:#000000;fill:#ffffff;fill-opacity:1;fill-rule:evenodd;stroke:none;stroke-width:1;marker:none;visibility:visible;display:inline;overflow:visible" />
      <path
         d="m 29.698485,3.8058261 2.298097,7.4246209 4.242641,3.712311 -8.662058,-1.944544 c 0,0 -2.474874,2.828427 -1.414214,2.828427 1.06066,0 12.551145,1.414214 12.551145,1.414214 L 38.53732,19.538952 22.273864,16.533748 29.344931,9.9930105 29.698485,3.8058261 z"
         id="path5174"
         style="opacity:0.13483145;color:#000000;fill:url(#linearGradient5182);fill-opacity:1;fill-rule:evenodd;stroke:none;stroke-width:1;marker:none;visibility:visible;display:inline;overflow:visible" />
      <path
         d="m 7.4246212,14.235651 -0.8838835,8.838835 1.9445437,-6.010408 5.1265246,1.590991 1.237436,-2.651651 6.187185,0.883884 1.414213,-1.237437 -9.015611,-0.353554 -0.883884,2.474874 -3.8890869,-1.944544 -1.2374369,-1.59099 z"
         id="path5184"
         style="color:#000000;fill:#ffffff;fill-opacity:1;fill-rule:evenodd;stroke:none;stroke-width:1;marker:none;visibility:visible;display:inline;overflow:visible" />
      <path
         d="m 22.45064,27.317127 3.005204,3.535534 6.894291,-4.596195 4.242641,2.298097 6.894291,6.540738 -7.601398,-5.833631 -3.71231,-1.06066 -7.247845,4.949748 -2.474874,-5.833631 z"
         id="path5186"
         style="color:#000000;fill:#ffffff;fill-opacity:1;fill-rule:evenodd;stroke:none;stroke-width:1;marker:none;visibility:visible;display:inline;overflow:visible" />
      <path
         d="M 29.65625,3.09375 18.84375,6.25 15.96875,13 a 0.83785841,0.83785841 0 0 1 -1.53125,0 l -0.78125,-1.78125 -1.6875,0.09375 0,2.03125 A 0.83785841,0.83785841 0 0 1 10.5,13.90625 l -2.9375,-3.375 -3.875,4.1875 0,6.5625 8,7 A 0.83785841,0.83785841 0 0 1 11.53125,29.625 l -4.8125,2.75 0.09375,2.125 2.75,2.4375 A 0.83785841,0.83785841 0 0 1 9.71875,38 l -1.25,2 2.375,1.03125 2.25,-1.8125 a 0.83785841,0.83785841 0 0 1 0.59375,-0.1875 l 11.84375,0.875 A 0.83785841,0.83785841 0 0 1 26.125,40.25 l 2.96875,3.96875 2.71875,-4.4375 a 0.83785841,0.83785841 0 0 1 1.125,-0.3125 l 4.03125,2.1875 L 41.1875,41.125 40.25,39.1875 a 0.83785841,0.83785841 0 0 1 0.15625,-0.96875 L 43.75,34.875 38.78125,29.28125 a 0.83785841,0.83785841 0 0 1 0.75,-1.40625 l 3.875,0.53125 A 0.83785841,0.83785841 0 0 1 43.3125,28.25 l -3,-5.15625 -4.25,-0.96875 a 0.83785841,0.83785841 0 0 1 -0.09375,-1.59375 l 3.15625,-1.0625 0.125,-2.25 -6.9375,-6.0625 a 0.83785841,0.83785841 0 0 1 -0.25,-0.375 l -2.40625,-7.6875 z"
         id="path5359"
         style="color:#000000;fill:none;stroke:url(#linearGradient4780);stroke-width:1;stroke-linecap:butt;stroke-linejoin:miter;stroke-miterlimit:4;stroke-opacity:1;stroke-dasharray:none;stroke-dashoffset:0;marker:none;visibility:visible;display:inline;overflow:visible" />
    </g>
  </g>
</svg>
